<svg width="50" height="50" viewBox="0 0 50 50" xmlns="http://www.w3.org/2000/svg">
  <!-- Bottle shape -->
  <rect x="17" y="8" width="16" height="5" fill="#FFC300" rx="2"/>
  <!-- Bottle neck -->
  <rect x="20" y="13" width="10" height="3" fill="#FFD700"/>
  <!-- Bottle body -->
  <path d="M 18 16 L 16 30 Q 16 35 19 37 L 31 37 Q 34 35 34 30 L 32 16 Z" fill="#A50000" stroke="#FFC300" stroke-width="1.5"/>
  <!-- Liquid inside -->
  <path d="M 18.5 25 L 16.5 32 Q 16.5 34 19 36 L 31 36 Q 33.5 34 33.5 32 L 31.5 25 Z" fill="#FFD700" opacity="0.7"/>
  <!-- Shine effect -->
  <ellipse cx="22" cy="22" rx="2" ry="5" fill="white" opacity="0.3"/>
  <!-- Decorative star at bottom -->
  <g transform="translate(25, 41)">
    <path d="M 0,-3 L 1,-1 L 3,-1 L 1,0 L 2,2 L 0,1 L -2,2 L -1,0 L -3,-1 L -1,-1 Z" fill="#FFC300"/>
  </g>
</svg>